<svg width="512" height="256" viewBox="0 0 512 256" xmlns="http://www.w3.org/2000/svg">
  <defs>
    <linearGradient id="bodyGrad" x1="0" y1="0" x2="1" y2="1">
      <stop offset="0%" stop-color="#dbeafe"/>
      <stop offset="40%" stop-color="#60a5fa"/>
      <stop offset="100%" stop-color="#1d4ed8"/>
    </linearGradient>
    <linearGradient id="glassGrad" x1="0" y1="0" x2="1" y2="1">
      <stop offset="0%" stop-color="#e0f2fe"/>
      <stop offset="100%" stop-color="#0ea5e9"/>
    </linearGradient>
    <linearGradient id="wheelGrad" x1="0" y1="0" x2="1" y2="1">
      <stop offset="0%" stop-color="#111827"/>
      <stop offset="100%" stop-color="#000000"/>
    </linearGradient>
  </defs>

  <ellipse cx="126" cy="206" rx="66" ry="16" fill="#0f172a" opacity="0.2"/>
  <ellipse cx="387" cy="206" rx="66" ry="16" fill="#0f172a" opacity="0.2"/>

  <path d="M60 150C60 128 78 110 100 110H194C214 110 228 102 240 86L266 56C274 46 286 40 298 40H406C438 40 464 66 464 98V150C464 172 446 190 424 190H100C78 190 60 172 60 150Z" fill="url(#bodyGrad)"/>
  <path d="M96 118H194C205 118 214 114 222 106L246 82C254 74 264 70 274 70H412C430 70 444 84 444 102V118H96Z" fill="url(#glassGrad)" opacity="0.92"/>

  <rect x="76" y="154" width="372" height="16" rx="8" fill="#1e3a8a" opacity="0.45"/>
  <rect x="240" y="72" width="8" height="52" rx="4" fill="#1e40af" opacity="0.75"/>
  <rect x="312" y="72" width="8" height="52" rx="4" fill="#1e40af" opacity="0.75"/>

  <circle cx="126" cy="182" r="44" fill="url(#wheelGrad)"/>
  <circle cx="126" cy="182" r="26" fill="#6b7280"/>
  <circle cx="126" cy="182" r="10" fill="#d1d5db"/>

  <circle cx="387" cy="182" r="44" fill="url(#wheelGrad)"/>
  <circle cx="387" cy="182" r="26" fill="#6b7280"/>
  <circle cx="387" cy="182" r="10" fill="#d1d5db"/>

  <rect x="72" y="130" width="16" height="10" rx="4" fill="#fef08a"/>
  <rect x="436" y="130" width="16" height="10" rx="4" fill="#fecaca"/>

  <path d="M92 114H404" stroke="#ffffff" stroke-width="4" stroke-linecap="round" opacity="0.4"/>
</svg>
